<svg height="512" viewBox="0 0 64 64" width="512" xmlns="http://www.w3.org/2000/svg"><path d="m53 31.14a16 16 0 1 1 -8-2.14 15.994 15.994 0 0 1 8 2.14zm2 15.86v-4h-8v-8h-4v8h-8v4h8v8h4v-8z" fill="#57a4ff"/><path d="m55 43v4h-8v8h-4v-8h-8v-4h8v-8h4v8z" fill="#ff9811"/><path d="m53 15v16.14a16 16 0 0 0 -24 13.86h-16a4 4 0 0 1 -4-4v-24a4 4 0 0 1 4-4h38a2.006 2.006 0 0 1 2 2z" fill="#ffc477"/><path d="m51 9v4h-38a4 4 0 0 0 -4 4v24a4 4 0 0 0 4 4h-8a2.006 2.006 0 0 1 -2-2v-38a2.006 2.006 0 0 1 2-2h12a2.006 2.006 0 0 1 2 2 2.015 2.015 0 0 0 2 2h28a2.006 2.006 0 0 1 2 2z" fill="#ff7956"/><path d="m13 16a1 1 0 0 0 -1 1v4h2v-3h3v-2z"/><path d="m12 23h2v2h-2z"/><path d="m55 42h-7v-7a1 1 0 0 0 -1-1h-4a1 1 0 0 0 -1 1v7h-7a1 1 0 0 0 -1 1v4a1 1 0 0 0 1 1h7v7a1 1 0 0 0 1 1h4a1 1 0 0 0 1-1v-7h7a1 1 0 0 0 1-1v-4a1 1 0 0 0 -1-1zm-1 4h-7a1 1 0 0 0 -1 1v7h-2v-7a1 1 0 0 0 -1-1h-7v-2h7a1 1 0 0 0 1-1v-7h2v7a1 1 0 0 0 1 1h7z"/><path d="m54 30.6v-15.6a3 3 0 0 0 -2-2.816v-3.184a3 3 0 0 0 -3-3h-28a1 1 0 0 1 -1-1 3 3 0 0 0 -3-3h-12a3 3 0 0 0 -3 3v38a3 3 0 0 0 3 3h23.051a16.989 16.989 0 1 0 25.949-15.4zm-50 12.4v-38a1 1 0 0 1 1-1h12a1 1 0 0 1 1 1 3 3 0 0 0 3 3h28a1 1 0 0 1 1 1v3h-37a5.006 5.006 0 0 0 -5 5v24a4.948 4.948 0 0 0 1.026 3h-4.026a1 1 0 0 1 -1-1zm6-2v-24a3 3 0 0 1 3-3h38a1 1 0 0 1 1 1v14.526a16.947 16.947 0 0 0 -23.949 14.474h-15.051a3 3 0 0 1 -3-3zm35 19a15 15 0 1 1 15-15 15.017 15.017 0 0 1 -15 15z"/></svg>