<svg height="480pt" viewBox="-21 0 480 480" width="480pt" xmlns="http://www.w3.org/2000/svg"><path d="m328 472h-320v-368l96-96h224zm0 0" fill="#ffdaaa"/><path d="m104 8-96 96h96zm0 0" fill="#ff7956"/><path d="m424 352s-99.839844 72-144 72-144-72-144-72 99.839844-72 144-72 144 72 144 72zm0 0" fill="#bddbff"/><path d="m320 352c0 22.089844-17.910156 40-40 40s-40-17.910156-40-40 17.910156-40 40-40 40 17.910156 40 40zm0 0" fill="#ed1c24"/><path d="m56 136h224v80h-224zm0 0" fill="#ffcd00"/><path d="m8 240v232h208c-114.96875 0-208-103.769531-208-232zm0 0" fill="#ffc477"/><g fill="#231f20"><path d="m280 400c-26.507812 0-48-21.492188-48-48s21.492188-48 48-48 48 21.492188 48 48c-.027344 26.5-21.5 47.972656-48 48zm0-80c-17.671875 0-32 14.328125-32 32s14.328125 32 32 32 32-14.328125 32-32-14.328125-32-32-32zm0 0"/><path d="m280 432c-46.230469 0-144.511719-70.511719-148.679688-73.511719l-8.992187-6.488281 8.992187-6.488281c4.167969-3 102.449219-73.511719 148.679688-73.511719s144.511719 70.511719 148.679688 73.511719l8.992187 6.488281-8.992187 6.488281c-4.167969 3-102.449219 73.511719-148.679688 73.511719zm-130.097656-80c32.640625 22.480469 99.289062 64 130.097656 64s97.464844-41.519531 130.097656-64c-32.640625-22.480469-99.289062-64-130.097656-64s-97.464844 41.519531-130.097656 64zm0 0"/><path d="m336 272v-272h-235.3125l-100.6875 100.6875v379.3125h336v-48h-16v32h-304v-352h96v-96h208v256zm-308.6875-176 68.6875-68.6875v68.6875zm0 0"/><path d="m144 64h16v16h-16zm0 0"/><path d="m176 64h112v16h-112zm0 0"/><path d="m144 96h16v16h-16zm0 0"/><path d="m176 96h112v16h-112zm0 0"/><path d="m288 224h-240v-96h240zm-224-16h208v-64h-208zm0 0"/><path d="m48 240h16v16h-16zm0 0"/><path d="m72 240h216v16h-216zm0 0"/></g></svg>